<svg xmlns="http://www.w3.org/2000/svg" width="337" height="100" viewBox="0 0 337 100"><g fill="none" fill-rule="nonzero"><path fill="#5FB670" d="M142.882 61.508c0 2.173-.088 4.434-1.419 6.253-.532.665-1.818 2.172-4.168 2.172-4.39.09-4.169-4.966-4.169-5.587 0-2.927 1.065-4.523 1.819-5.499.886-1.064 1.73-1.64 3.902-3.326a29.766 29.766 0 0 0 1.907-1.375c.665-.62 1.419-1.286 2.128-1.95v9.312Zm7.761 12.24a4.978 4.978 0 0 1-1.153-1.287c-.62-1.197-.665-3.547-.665-6.696V47.672c0-3.237 0-4.923-.444-6.43-.221-.621-.665-1.907-1.906-3.193-2.13-2.173-4.701-2.705-7.628-2.705-3.237 0-6.253.532-8.514 3.148-1.819 2.129-1.819 3.991-1.907 6.652-.089 1.064-.089 2.173-.089 3.237h5.499a31.343 31.343 0 0 1-.133-2.882c0-1.508-.31-5.366 4.523-5.366 4.612 0 4.612 3.902 4.612 5.277v1.286c-1.197 1.109-2.572 2.484-5.499 4.524-3.858 2.705-5.676 3.547-7.406 5.365-2.35 2.35-3.015 4.834-3.015 7.983 0 3.547.665 6.652 3.947 8.603 1.907 1.153 3.68 1.197 4.523 1.197 5.277 0 7.007-3.459 7.85-5.188v4.523h7.405v.044Zm-29.933-37.74h-5.943v37.74h5.943v-37.74Zm-14.102 37.74V47.183c0-4.435-.09-6.652-1.286-8.603-1.42-2.35-3.859-3.237-6.475-3.237-3.636 0-5.81 1.73-6.874 2.616-.443.444-.842.976-1.286 1.508v-3.46h-5.72v37.74h6.03V49.356c0-3.149-.088-4.612.533-6.12.355-.975 1.508-3.193 4.523-3.193 4.745 0 4.435 5.144 4.435 6.031v27.628h6.12v.044ZM72.106 51.174h-9.49V49.58c0-3.637 0-5.5.754-7.184.754-1.685 2.129-2.44 3.991-2.44 3.326 0 4.524 2.262 4.701 5.19.089 1.418.089 2.926.089 4.39v1.64h-.045Zm5.677 10.865h-5.677c.09 3.636-.31 5.499-1.818 6.652-1.153.887-2.173.842-2.794.842-1.197 0-3.636-.133-4.523-3.326-.222-.842-.31-1.73-.399-3.547a83.18 83.18 0 0 1 0-6.652h15.21V50.42c0-3.104.222-7.405-1.285-10.332-.666-1.375-1.73-2.262-2.262-2.661-2.173-1.73-4.523-2.04-7.228-2.04-1.153 0-4.302-.089-6.918 2.129-1.73 1.419-2.705 3.104-3.238 7.45a63.277 63.277 0 0 0-.31 6.474c0 2.35 0 4.657.089 7.007.088 5.81-.133 8.07 1.286 10.865 1.951 3.858 5.277 5.055 9.445 5.055 4.745 0 6.963-1.73 8.293-3.415 2.217-2.66 2.217-5.676 2.129-8.913M48.559 36.009h-5.943v37.738h5.943V36.01Zm0-14.413h-5.943v7.761h5.943v-7.76Zm-14.457-1.153h-6.075v53.26h6.12v-53.26h-.045ZM21.419 59.69H15.7c0 2.261-.222 4.922-.311 5.498-.443 3.77-2.882 4.435-4.523 4.435-.843 0-2.883 0-3.991-2.173-.843-1.596-.666-4.434-.666-4.612a236.93 236.93 0 0 1-.133-7.938c0-5.144.133-9.445.444-11.264.222-1.286.887-3.858 4.434-3.858.754 0 2.706 0 3.859 1.818.753 1.153.753 2.883.753 3.105.133 1.64.133 3.326.133 4.922h5.721c0-5.588-.089-7.982-1.64-10.554-1.863-3.104-5.367-3.77-8.826-3.77-2.705 0-5.676.444-7.716 2.484C.621 40.355.355 45.499.31 46.075.09 49.535 0 53.038 0 56.497c0 6.252.133 10.731 1.375 13.26.975 2.172 3.636 4.611 9.046 4.611 3.326 0 6.342-.532 8.603-3.193C21.11 68.78 21.42 65.81 21.42 59.69"/><path fill="#706F6F" d="M165.277 68.027v4.567l1.863.31v.71h-5.366v-.665l1.552-.355v-9.667l-1.508-.444v-.62h7.495l1.596-.09v3.238h-.71l-.975-2.306h-3.991v4.479h2.261l.488-1.463h.621v3.68h-.71l-.443-1.374h-2.173Zm13.526 5.809-.532-1.42-.132.15-.091.096-.109.107c-.484.468-1.397 1.156-2.64 1.156-1.507 0-2.439-1.065-2.439-3.105v-4.479l-1.241-.354v-.71l2.97-.31v5.499c.045 1.419.622 2.084 1.775 2.084.702 0 1.293-.361 1.597-.6l.086-.07.066-.06.024-.024v-5.499l-1.419-.31v-.71l3.193-.31v7.45l1.42.355v.665l-2.528.399Zm-5.278-11.973a1.08 1.08 0 0 1 1.065-1.065 1.08 1.08 0 0 1 1.064 1.065 1.08 1.08 0 0 1-1.064 1.064c-.577-.045-1.065-.488-1.065-1.064Zm3.548 0a1.08 1.08 0 0 1 1.064-1.065 1.08 1.08 0 0 1 1.065 1.065 1.08 1.08 0 0 1-1.065 1.064c-.576-.045-1.064-.488-1.064-1.064Zm10.599 11.086 1.02-.355V68.16l-.019-.214c-.115-1.11-.495-1.738-1.622-1.738-.708 0-1.364.385-1.736.666l-.108.085-.087.075a1.702 1.702 0 0 0-.065.061v5.5l1.153.354v.665h-4.035v-.665l1.153-.355V61.818l-1.197-.443v-.532l2.97-.488v6.164l.076-.091.09-.105.107-.116.122-.125.137-.13c.528-.485 1.345-1.03 2.351-1.03 1.685 0 2.484.754 2.484 2.972v4.7l1.153.355v.62h-3.947v-.62Zm4.922 0 1.109-.355v-5.986l-1.197-.222v-.577l2.572-.887h.088l.178 2.129h.044l.665-.887c.665-.887 1.109-1.286 1.774-1.286.62 0 .976.4.976.976 0 .396-.189.709-.379.966l-.199.26c-.015.02-.03.04-.043.06l-1.508-.532-.155.117a5.392 5.392 0 0 0-1.042 1.036v4.833l1.596.266v.665h-4.479v-.576Zm6.785-3.237c0-2.75 1.863-4.79 4.302-4.79 2.084 0 3.237 1.464 3.237 3.903h-5.854c0 2.261 1.286 3.592 3.105 3.592.904 0 1.617-.447 2.043-.805l.114-.099.097-.092.081-.08.09-.097.058-.069.355.266-.009.013-.036.064-.097.184-.083.148-.066.11-.075.12-.084.127-.094.131c-.527.713-1.483 1.587-3.093 1.587-2.97-.045-3.99-2.572-3.99-4.213Zm1.73-1.641h3.858c0-1.197-.532-2.262-1.685-2.262-1.065 0-1.952.932-2.173 2.262Zm7.272 4.878 1.109-.355v-5.986l-1.197-.267v-.532l2.394-.887h.09l.398 1.597h.045l.075-.084.094-.1.11-.112.128-.122c.54-.505 1.455-1.179 2.52-1.179 1.684 0 2.483.754 2.483 2.972v4.7l1.153.355v.62h-3.858v-.664l.975-.355v-4.435c-.044-1.241-.443-1.95-1.64-1.95-.651 0-1.242.314-1.617.577l-.116.085-.1.079-.08.068-.06.055a1.282 1.282 0 0 0-.023.022v5.499l1.153.355v.665h-4.036v-.621Zm14.812-12.15 3.415-.444v12.15l1.419.355v.621l-2.528.355-.444-1.242-.161.159a8.575 8.575 0 0 1-.082.078l-.169.152c-.57.5-1.237.897-2.16.897-2.394 0-3.592-1.995-3.592-4.08 0-2.926 1.996-4.878 4.568-4.878.517 0 .942.062 1.275.134l.188.044v-3.37l-1.685-.31v-.622h-.044Zm1.685 11.352v-5.233l-.118-.161-.073-.094a3.372 3.372 0 0 0-.042-.051l-.096-.109c-.31-.335-.82-.738-1.533-.738-1.287 0-2.395 1.109-2.395 3.149v.103l.007.206c.08 1.75.865 3.371 2.875 3.371.577 0 1.02-.221 1.375-.443Zm7.583.798 1.198-.355v-6.03l-1.065-.356v-.71l2.794-.576v7.672l1.286.355v.665h-4.213v-.665Zm.754-11.086c0-.621.532-1.153 1.197-1.153.621 0 1.198.532 1.198 1.153 0 .62-.532 1.153-1.198 1.153-.665 0-1.197-.533-1.197-1.153Zm4.435 11.086 1.108-.355v-5.986l-1.197-.267v-.532l2.395-.887h.088l.4 1.597h.044l.076-.084.093-.1.111-.112.127-.122c.54-.505 1.455-1.179 2.52-1.179 1.685 0 2.483.754 2.483 2.972v4.7l1.153.355v.62h-3.947v-.664l.976-.355v-4.435c-.045-1.241-.444-1.95-1.641-1.95-.65 0-1.242.314-1.616.577l-.117.085-.099.079-.08.068-.061.055a1.282 1.282 0 0 0-.023.022v5.499l1.153.355v.665h-4.035v-.621h.089Zm21.596-7.672c0-1.463-1.153-2.838-4.035-2.838v10.11l2.217.356v.665h-5.676v-.665l1.507-.355v-9.712l-1.507-.443v-.621l4.168-.045c3.592-.044 5.455 1.242 5.455 3.238 0 2.66-2.883 3.858-5.277 3.68v-.62c1.862-.133 3.148-1.065 3.148-2.75Zm3.149 7.982-.266-2.572h.62l.932 1.996.152.11.11.076c.266.178.613.346 1.201.346.887 0 1.508-.532 1.508-1.286 0-.665-.4-1.153-1.685-1.73l-.798-.354c-1.242-.577-1.863-1.198-1.863-2.35 0-1.42 1.463-2.528 3.193-2.528.754 0 1.508.177 2.262.576l.088 2.218h-.576l-.71-1.597a1.921 1.921 0 0 0-1.241-.443c-.799 0-1.33.532-1.33 1.197s.354 1.109 1.418 1.552l.798.355c1.597.71 2.129 1.463 2.129 2.483 0 1.508-1.64 2.705-3.459 2.705-.976-.088-1.774-.399-2.483-.754Zm12.505-7.45v-.62h3.06v.62l-.798.355-3.903 9.756-.11.273-.109.253c-.517 1.178-.963 1.691-1.82 1.691-.621 0-1.198-.443-1.198-1.108 0-.621.444-.976.976-.976.443 0 .754.31.975.71h.045l.975-2.306-3.237-8.337-.798-.31v-.622h4.08v.621l-1.286.31 2.128 6.032h.045l2.217-5.943-1.242-.399Zm3.415 3.903c0-2.927 2.306-4.745 4.567-4.745 1.508 0 2.617.842 2.617 1.862 0 .577-.355 1.02-1.02 1.02l-.139-.002-.191-.01-.16-.012-.175-.02-.266-1.73-.01-.01-.039-.027c-.115-.078-.416-.229-.927-.229-1.463 0-2.483 1.42-2.483 3.149 0 2.04 1.286 3.592 3.015 3.592.801 0 1.418-.443 1.754-.757l.093-.09a3.11 3.11 0 0 0 .04-.041l.092-.102.039-.046.022-.028.355.266-.026.036-.05.085-.125.21-.064.102-.073.11-.04.059-.088.12c-.477.637-1.358 1.45-2.904 1.45-2.04-.044-3.814-1.551-3.814-4.212Zm13.525 3.237 1.02-.355V68.16l-.018-.214c-.115-1.11-.496-1.738-1.622-1.738-.708 0-1.365.385-1.736.666l-.108.085-.087.075a1.701 1.701 0 0 0-.065.061v5.5l1.153.354v.665h-4.036v-.665l1.153-.355V61.818l-1.197-.443v-.532l2.971-.488v6.164l.075-.091.091-.105.107-.116a5.24 5.24 0 0 1 .122-.125l.136-.13c.528-.485 1.346-1.03 2.352-1.03 1.685 0 2.483.754 2.483 2.972v4.7l1.153.355v.62h-3.947v-.62Zm4.834 0 1.197-.355v-6.03l-1.064-.356v-.71l2.794-.576v7.672l1.286.355v.665h-4.213v-.665Zm.754-11.086c0-.621.532-1.153 1.197-1.153.621 0 1.198.532 1.198 1.153 0 .62-.533 1.153-1.198 1.153-.62 0-1.197-.533-1.197-1.153Zm4.7 9.844c0-1.419 1.065-2.084 2.839-2.527l1.862-.488v-.887c-.088-1.42-.665-2.084-1.64-2.084-.488 0-.932.221-1.065.31l-.089 1.774-.037.004-.231.036-.195.026-.137.013c-.068.006-.136.01-.198.01-.576 0-.887-.267-.887-.799 0-.887 1.641-2.173 3.592-2.173 1.952 0 2.705.843 2.705 2.661v4.656c0 .4.09.533.621.533h.843v.532l-.229.096-.18.07-.142.052a7.33 7.33 0 0 1-.076.026l-.16.052-.167.05a5.443 5.443 0 0 1-.087.023l-.175.042a2.849 2.849 0 0 1-.602.077c-.976 0-1.33-.621-1.375-1.42h-.044l-.562.543-.169.157c-.498.453-.937.733-1.672.762l-.125.002c-1.02.044-2.217-.665-2.217-2.129Zm4.746 0v-2.394l-1.508.532c-.887.31-1.375.62-1.375 1.375 0 .856.62 1.299 1.342 1.328l.077.002c.617.036 1.056-.343 1.316-.652l.08-.1.068-.09Zm4.833.089.045-5.72h-1.242v-.754l1.286-.355.976-2.173h.62v2.35h2.35v.976h-2.305v4.922c0 1.146.37 1.43.903 1.492l.109.01.056.002.115.004h.058l.15-.002.153-.006.23-.013.288-.023.421-.045.133.532-.073.05-.11.068-.099.058-.117.064-.135.07-.152.071-.167.073a4.39 4.39 0 0 1-1.506.342l-.124.003c-1.464.044-1.863-.843-1.863-1.996Zm5.1 1.153 1.109-.355v-5.986l-1.198-.222v-.577l2.572-.887h.09l.177 2.129h.044l.665-.887c.665-.887 1.109-1.286 1.774-1.286.62 0 .976.4.976.976 0 .396-.19.709-.38.966l-.198.26c-.015.02-.03.04-.043.06l-1.508-.532-.155.117a5.392 5.392 0 0 0-1.042 1.036v4.833l1.596.266v.665h-4.479v-.576Zm6.785 0 1.197-.355v-6.03l-1.064-.356v-.71l2.794-.576v7.672l1.286.355v.665h-4.213v-.665Zm.754-11.086c0-.621.532-1.153 1.197-1.153.621 0 1.198.532 1.198 1.153 0 .62-.533 1.153-1.198 1.153-.665 0-1.197-.533-1.197-1.153Zm4.479 7.849c0-2.75 1.862-4.79 4.301-4.79 2.085 0 3.238 1.464 3.238 3.903h-5.898c0 2.261 1.286 3.592 3.104 3.592.905 0 1.618-.447 2.043-.805l.114-.099.098-.092.115-.117.092-.103.021-.026.355.266-.009.013-.036.064-.097.184-.083.148-.065.11-.075.12-.085.127-.094.131c-.527.713-1.482 1.587-3.092 1.587-2.342-.036-3.463-1.66-3.818-3.15l-.04-.185a4.856 4.856 0 0 1-.033-.183l-.025-.18-.017-.176a4.245 4.245 0 0 1-.014-.34Zm1.73-1.641h3.857c0-1.197-.532-2.262-1.685-2.262-1.064 0-1.95.932-2.173 2.262ZM168.38 95.698l-.532-1.419-.131.149-.092.096-.108.108c-.485.468-1.397 1.155-2.64 1.155-1.508 0-2.439-1.064-2.439-3.104v-4.479l-1.242-.355v-.71l2.972-.31v5.5c.044 1.418.62 2.083 1.773 2.083.702 0 1.293-.36 1.597-.6l.086-.07.066-.06.025-.023v-5.5l-1.419-.31v-.71l3.193-.31v7.45l1.42.355v.665l-2.529.4Zm3.238-.886 1.108-.355V88.47l-1.197-.266v-.532l2.395-.887h.088l.4 1.596h.044l.076-.083.093-.1.111-.112.127-.122c.54-.506 1.455-1.18 2.52-1.18 1.685 0 2.483.755 2.483 2.972v4.7l1.153.356v.62h-3.947v-.665l.976-.355v-4.434c-.045-1.242-.444-1.951-1.641-1.951-.65 0-1.242.315-1.616.578l-.117.085-.099.078-.08.068-.061.056a1.282 1.282 0 0 0-.023.022v5.498l1.153.355v.665h-4.035v-.62h.089Zm14.856-12.151 3.414-.444v12.151l1.42.355v.62l-2.529.355-.443-1.241-.161.158a8.576 8.576 0 0 1-.083.078l-.168.153c-.57.5-1.238.897-2.16.897-2.395 0-3.592-1.996-3.592-4.08 0-2.927 1.996-4.878 4.568-4.878.517 0 .942.062 1.275.133l.188.044v-3.37l-1.685-.31v-.621h-.044Zm1.64 11.352V88.78l-.118-.16-.073-.095a3.379 3.379 0 0 0-.042-.05l-.096-.11c-.31-.334-.82-.738-1.533-.738-1.286 0-2.395 1.11-2.395 3.15v.102l.007.207c.081 1.749.865 3.37 2.876 3.37a2.962 2.962 0 0 0 1.374-.443Zm15.477-6.873c0-1.464-1.153-2.838-4.035-2.838v10.11l2.217.355v.665h-5.676v-.665l1.507-.355v-9.711l-1.507-.444v-.62l4.168-.045c3.592-.044 5.455 1.242 5.455 3.237 0 2.661-2.883 3.858-5.278 3.681v-.62c1.863-.134 3.149-1.065 3.149-2.75Zm3.149 7.982-.266-2.572h.62l.932 1.995.152.11.11.077c.265.177.613.346 1.201.346.887 0 1.508-.533 1.508-1.286 0-.666-.4-1.153-1.685-1.73l-.799-.355c-1.241-.576-1.862-1.197-1.862-2.35 0-1.42 1.463-2.528 3.193-2.528.754 0 1.508.178 2.261.577l.09 2.217h-.577l-.71-1.596a1.921 1.921 0 0 0-1.242-.444c-.798 0-1.33.532-1.33 1.197 0 .666.355 1.11 1.42 1.553l.797.354c1.597.71 2.129 1.464 2.129 2.484 0 1.507-1.64 2.705-3.46 2.705-.975-.089-1.773-.4-2.482-.754Zm12.505-7.45v-.621h3.06v.62l-.798.356-3.903 9.756-.11.272-.109.253c-.517 1.178-.963 1.692-1.82 1.692-.621 0-1.198-.443-1.198-1.109 0-.62.444-.975.976-.975.443 0 .754.31.975.71h.045l.975-2.307-3.237-8.337-.798-.31v-.621h4.08v.62l-1.286.311 2.128 6.031h.045l2.217-5.942-1.242-.4Zm3.37 3.902c0-2.927 2.306-4.745 4.568-4.745 1.508 0 2.616.843 2.616 1.863 0 .576-.354 1.02-1.02 1.02l-.138-.002-.192-.01-.159-.013-.176-.02-.266-1.73-.01-.009-.038-.028c-.115-.078-.416-.228-.927-.228-1.464 0-2.484 1.419-2.484 3.148 0 2.04 1.286 3.592 3.016 3.592.8 0 1.417-.443 1.754-.757l.093-.09.04-.04.092-.103.039-.046.022-.028.354.266-.025.037-.051.085-.124.209-.064.102-.073.111-.04.058-.088.121c-.478.636-1.358 1.45-2.905 1.45-2.04-.044-3.814-1.552-3.814-4.213Zm13.57 3.238 1.02-.355v-4.435l-.018-.213c-.115-1.11-.496-1.738-1.623-1.738-.782 0-1.502.47-1.843.75l-.087.076a1.701 1.701 0 0 0-.065.06v5.5l1.153.355v.665h-4.036v-.665l1.153-.355V83.68l-1.197-.444v-.532l2.971-.488v6.164l.075-.09.09-.106.108-.116a5.24 5.24 0 0 1 .121-.124l.137-.13c.528-.485 1.346-1.03 2.352-1.03 1.685 0 2.483.754 2.483 2.971v4.7l1.153.356v.62h-3.947v-.62Zm4.923-3.415c0-2.572 1.862-4.656 4.257-4.656 2.572 0 4.257 1.596 4.257 4.301 0 2.573-1.758 4.588-4.136 4.655l-.121.001c-2.794.045-4.257-1.995-4.257-4.301Zm4.523 3.503c1.33 0 2.129-1.463 2.084-3.326-.043-2.478-1.024-3.933-2.484-3.947h-.088c-1.375 0-2.173 1.42-2.128 3.282.044 1.951.842 4.036 2.616 3.991Zm6.031-1.241.044-5.721h-1.241v-.754l1.286-.355.975-2.173h.621v2.35h2.35v.976h-2.306v4.923c0 1.145.37 1.429.904 1.491l.109.01.056.003.114.003h.06c.048 0 .097 0 .148-.002l.154-.005.23-.014.413-.035.296-.032.133.532-.074.05-.11.068-.098.057-.117.065-.135.069-.152.072-.167.072a4.325 4.325 0 0 1-1.63.345c-1.42 0-1.863-.842-1.863-1.995Zm10.554 1.153 1.02-.355v-4.435c-.088-1.242-.443-1.951-1.64-1.951-.783 0-1.502.47-1.844.75l-.087.076-.065.06v5.5l1.153.355v.665h-4.036v-.665l1.153-.355V83.68l-1.197-.444v-.532l2.971-.488v6.164l.075-.09.09-.106.108-.116c.038-.04.078-.082.121-.124l.137-.13c.528-.485 1.346-1.03 2.352-1.03 1.685 0 2.483.754 2.483 2.971v4.7l1.153.356v.62h-3.947v-.62Zm4.967-3.238c0-2.75 1.863-4.79 4.302-4.79 2.084 0 3.237 1.464 3.237 3.903h-5.898c0 2.262 1.286 3.592 3.104 3.592.905 0 1.618-.447 2.044-.804l.113-.1.098-.091.115-.117.092-.104.021-.025.355.266-.019.03-.123.23-.082.148-.066.111-.075.12-.084.126-.094.132c-.528.713-1.483 1.586-3.093 1.586-2.342-.035-3.463-1.66-3.817-3.149l-.04-.185a4.856 4.856 0 0 1-.033-.183l-.025-.18-.018-.177a4.245 4.245 0 0 1-.014-.339Zm1.73-1.64h3.858c0-1.164-.503-2.201-1.588-2.26l-.098-.002c-1.108-.045-1.95.931-2.172 2.261Zm7.228 4.878 1.109-.355v-5.943l-1.198-.221v-.577l2.572-.887h.089l.177 2.129h.045l.665-.887c.665-.887 1.109-1.286 1.774-1.286.62 0 .975.399.975.976 0 .396-.188.708-.378.966l-.199.26-.044.06-1.507-.533-.155.118a5.392 5.392 0 0 0-1.043 1.035v4.834l1.597.266v.665h-4.48v-.62Zm6.962-1.242c0-1.42 1.065-2.084 2.838-2.528l1.863-.488v-.887c-.089-1.419-.665-2.084-1.64-2.084-.489 0-.932.222-1.065.31l-.089 1.774-.038.005-.23.035-.195.026-.137.014c-.069.006-.136.01-.198.01-.577 0-.887-.267-.887-.8 0-.886 1.64-2.172 3.592-2.172 1.951 0 2.705.842 2.705 2.66v4.657c0 .4.089.532.62.532h.843v.532l-.228.097-.181.07-.141.051-.154.052a6.671 6.671 0 0 1-.082.026l-.168.05a5.446 5.446 0 0 1-.086.023l-.176.043a2.849 2.849 0 0 1-.602.076c-.975 0-1.33-.62-1.374-1.419h-.045l-.561.542-.17.158c-.497.453-.937.733-1.671.761l-.125.002c-1.065.045-2.218-.665-2.218-2.128Zm4.745 0v-2.395l-1.508.532c-.886.31-1.374.621-1.374 1.375 0 .887.665 1.33 1.419 1.33.682 0 1.146-.435 1.393-.748l.07-.094Zm3.814 5.499 1.153-.355v-10.2l-1.197-.266v-.532l2.394-.887h.089l.355 1.464.078-.096a4.37 4.37 0 0 1 .045-.052l.102-.111c.452-.483 1.29-1.16 2.436-1.16 1.773 0 3.414 1.153 3.414 4.035 0 2.794-2.35 4.922-4.834 4.922-.399 0-.798-.088-1.153-.177v3.104l1.686.444v.62h-4.612v-.753h.044Zm2.927-10.333v5.543l.052.05.066.061.083.068c.27.212.752.487 1.484.487 1.242 0 2.528-1.198 2.528-3.504 0-2.04-1.02-3.37-2.528-3.37-.798 0-1.375.355-1.685.665Zm7.05 6.076 1.198-.355v-6.031l-1.064-.355v-.71l2.794-.576v7.672l1.286.355v.665h-4.213v-.665Zm.799-11.131c0-.621.532-1.153 1.197-1.153.621 0 1.198.532 1.198 1.153 0 .597-.492 1.112-1.121 1.15l-.077.003c-.665.044-1.197-.488-1.197-1.153Zm4.435 7.893c0-2.75 1.862-4.79 4.301-4.79 2.084 0 3.237 1.464 3.237 3.903h-5.898c0 2.262 1.286 3.592 3.105 3.592.904 0 1.617-.447 2.043-.804l.114-.1.097-.091.115-.117.093-.104.021-.025.355.266-.019.03-.123.23-.083.148-.066.111-.075.12-.084.126-.094.132c-.527.713-1.483 1.586-3.093 1.586-2.341-.035-3.462-1.66-3.817-3.149l-.04-.185a4.856 4.856 0 0 1-.033-.183l-.025-.18-.018-.177a4.245 4.245 0 0 1-.013-.339Zm1.73-1.64h3.857c0-1.164-.502-2.201-1.588-2.26l-.097-.002c-1.064-.045-1.907.931-2.173 2.261Z"/><path fill="#F3953F" d="M128.381 5.055C122.971 0 110.865.843 107.85 0c-3.326 6.83-4.346 13.88-2.261 17.96 1.95 3.814 8.381 3.636 9.578 3.636 4.258-.044 11.663-1.197 14.501-1.64 1.73-4.612 1.996-11.84-1.286-14.9Z"/><path fill="#2C98C8" d="M130.776 10.51c-9.357 1.153-14.28 5.144-15.698 11.042 5.986-.044 32.062-3.015 38.714-11.397-5.145-.754-14.635-.71-23.016.355Z"/><path fill="#5FB670" d="M130.82 10.51c-9.4 1.197-18.314 5.499-15.831 20.4 17.517-4.258 15.92-17.65 15.831-20.4Z"/><path fill="#000" d="M115.078 21.552h.044c4.257-.044 11.663-1.197 14.457-1.64 1.73-4.214 1.33-8.47 1.197-9.402-7.05.887-13.792 3.548-15.698 11.042Z"/></g></svg>